<svg id="Capa_1" data-name="Capa 1" xmlns="http://www.w3.org/2000/svg" viewBox="0 0 933.85 579.72"><defs><style>.cls-1{fill:#e4e4e1;}</style></defs><title>facebook</title><path class="cls-1" d="M414.73,678.38V453.43h74.51c3.56-29.22,7.1-58.31,10.67-87.63H414.78c-.06-.68-.14-1.14-.14-1.6,0-18.63-.12-37.25.09-55.87a68.73,68.73,0,0,1,1.79-14.57c2.91-12.5,10.8-20.16,23.2-23.09a83.9,83.9,0,0,1,19.27-2q21.13,0,42.28,0h2.49V190.38c-3.94-.52-7.89-1.15-11.87-1.57a456.47,456.47,0,0,0-62.52-2.15c-19.48.65-38.12,5-55.09,15.15-20.24,12.11-33.76,29.83-41.62,52.07a134.13,134.13,0,0,0-7.27,44.46c-.09,21.65,0,43.31,0,65v2.32H250.81v87.71h74.41V677.07c-.65,0-1.29.09-1.93.09q-97.52,0-195,0c-32.11,0-58.55-12.8-80.09-36.54C34,625,24.7,606.88,21.54,585.82a124.21,124.21,0,0,1-1.35-18.48q-.12-179.36-.08-358.7c0-37.47,16.21-66.51,45-88.93a98.54,98.54,0,0,1,51.73-20.38c3.75-.37,7.54-.49,11.31-.49q177.14,0,354.27-.08c33.22,0,60.34,12.88,82.31,37.61,13.58,15.29,22.52,33,25.6,53.37a129.77,129.77,0,0,1,1.44,19.19q.13,179.71.05,359.44c0,46.11-28.49,87.61-70.83,103.57A106.12,106.12,0,0,1,483,678.48c-22.13-.05-44.26,0-66.39,0C416,678.46,415.4,678.41,414.73,678.38Z" transform="translate(-20.11 -98.76)"/><path class="cls-1" d="M844.23,287.11H830.94l-.89-.19a9.11,9.11,0,0,1-7.55-8.86c0-3.63,0-7.25,0-10.87a9.23,9.23,0,0,1,9.28-9q5.84-.07,11.66,0a9.28,9.28,0,0,1,8.74,6.18c.23.67.35,1.36.52,2.05V279a1.48,1.48,0,0,0-.12.29,8.89,8.89,0,0,1-5.92,7.18A21.5,21.5,0,0,1,844.23,287.11Zm5.64-14.42h0c0-1.91,0-3.82,0-5.73a6.43,6.43,0,0,0-6.3-6.1q-6-.09-11.93,0a6.43,6.43,0,0,0-6.31,6.22q0,5.44,0,10.88A6.46,6.46,0,0,0,832,284.4q5.57,0,11.13,0a6.48,6.48,0,0,0,6.71-6.43C849.87,276.21,849.87,274.45,849.87,272.69Z" transform="translate(-20.11 -98.76)"/><path class="cls-1" d="M837.63,265.39a7.24,7.24,0,1,1-7.58,7.07A7.4,7.4,0,0,1,837.63,265.39Zm-4.79,7.2a4.75,4.75,0,1,0,4.71-4.52A4.69,4.69,0,0,0,832.84,272.59Z" transform="translate(-20.11 -98.76)"/><path class="cls-1" d="M845.67,265.77a.92.92,0,0,1-.94-.95,1,1,0,1,1,.94.95Z" transform="translate(-20.11 -98.76)"/><path class="cls-1" d="M877.56,287.11c.2-.78.4-1.55.59-2.32.42-1.66.85-3.32,1.27-5a.31.31,0,0,0,0-.19,15.05,15.05,0,0,1-1.58-5,15.22,15.22,0,0,1-.08-3.44,14.79,14.79,0,0,1,2.7-7.36,13.43,13.43,0,0,1,4.75-4.16,12.21,12.21,0,0,1,3.62-1.23,11.87,11.87,0,0,1,3.52-.11,12.26,12.26,0,0,1,5.61,2.06,14,14,0,0,1,4.7,5.37,14.82,14.82,0,0,1,1.41,4.48,15.63,15.63,0,0,1,.11,3.68,14.77,14.77,0,0,1-2.86,7.57,13.39,13.39,0,0,1-4.71,4,12.24,12.24,0,0,1-3.29,1.14,12.42,12.42,0,0,1-7.24-.79c-.46-.2-.91-.46-1.37-.68a.22.22,0,0,0-.18,0l-6.85,1.93Zm3.19-3.4h.08l4-1.13a.26.26,0,0,1,.21,0c.32.2.63.41,1,.58a10.32,10.32,0,0,0,4,1.23,9.94,9.94,0,0,0,2.83-.13,10.47,10.47,0,0,0,4.58-2.1,11.59,11.59,0,0,0,3.28-4.08,12.87,12.87,0,0,0,1-8.18,12,12,0,0,0-2.72-5.48,10.6,10.6,0,0,0-6.59-3.65,9.91,9.91,0,0,0-3.26.06,10.28,10.28,0,0,0-4.08,1.68,11.54,11.54,0,0,0-3.76,4.28,12.76,12.76,0,0,0-.63,10.07,13.51,13.51,0,0,0,1.14,2.36.23.23,0,0,1,0,.18c-.27,1.09-.55,2.17-.82,3.26C880.92,283,880.84,283.35,880.75,283.71Z" transform="translate(-20.11 -98.76)"/><path class="cls-1" d="M886.63,266H887a.51.51,0,0,1,.53.31c.1.2.19.42.27.63l.93,2.4a.69.69,0,0,1,0,.58,4.92,4.92,0,0,1-.87,1.25.51.51,0,0,0-.08.68,9.25,9.25,0,0,0,3.81,3.9l.8.38a.43.43,0,0,0,.61-.14c.35-.45.7-.91,1-1.37.21-.3.36-.37.68-.23s.77.36,1.14.55c.53.27,1,.56,1.57.82a.57.57,0,0,1,.33.59,4.89,4.89,0,0,1-.27,1.41,1.68,1.68,0,0,1-.48.66,3.89,3.89,0,0,1-1.5.91,3.6,3.6,0,0,1-1.22.12,5.55,5.55,0,0,1-1.75-.43,11.56,11.56,0,0,1-3.79-2.23,16.48,16.48,0,0,1-2.52-2.81c-.4-.58-.79-1.17-1.14-1.78a5.89,5.89,0,0,1-.76-2.14,4.19,4.19,0,0,1,1-3.55,1.34,1.34,0,0,1,.75-.5,5.68,5.68,0,0,1,.59,0Z" transform="translate(-20.11 -98.76)"/><path class="cls-1" d="M953.81,270.46c0-.51-.32-.46-.62-.46h-10.8c-.17,0-.4-.12-.52.16v.17c0,1.43,0,2.87,0,4.3,0,.81.21,1,.87,1,2-.05,4,0,6,0a7,7,0,0,1-2.51,4.49,7.13,7.13,0,0,1-6.44,1c-2.51-.85-4.1-2.83-5.05-5.54a10.33,10.33,0,0,1,0-5.65l.18-.46c2.17-5.84,8.23-6.87,11.52-3.55.31.31.45.16.66-.08.92-1.06,1.83-2.15,2.79-3.16.48-.49.38-.74-.05-1.14a11.1,11.1,0,0,0-10.26-2.94c-4.1.87-7.15,3.45-9,7.73a15.55,15.55,0,0,0,0,12.89,9.1,9.1,0,0,0,.4.9c3,5.25,7.21,7.55,12.63,7a10,10,0,0,0,6.7-3.43C953.61,280,954.33,275.45,953.81,270.46Z" transform="translate(-20.11 -98.76)"/></svg>