<svg id="Capa_1" data-name="Capa 1" xmlns="http://www.w3.org/2000/svg" viewBox="0 0 562.23 595.68"><defs><style>.cls-1{fill:#e4e4e1;}</style></defs><title>gmail</title><path class="cls-1" d="M583.71,335.92c-1.18-10.48-7.24-9.56-14.08-9.55q-122,.11-244,.18c-4,0-9.17-2.36-11.84,3.42l-.12,3.44c-.22,29.64.55,59.33-1,88.88-.91,16.72,4.86,20,19.67,19.71,44.74-.95,89.51-.34,135.23-.34-6.32,40.64-27.24,69.5-56.73,92.74C365,561.84,316.4,570.53,265.29,554.85,208.45,537.41,172.56,496.4,151,440.5c-11.41-38.92-11.85-77.8.33-116.66,1.35-3.18,2.78-6.34,4.08-9.55,49.06-120.73,185.94-142,260.37-73.37,7,6.4,10.07,3.22,14.79-1.72,20.9-21.91,41.37-44.33,63.27-65.13,10.65-10.11,8.48-15.32-1.33-23.56C424.17,93.07,346,73.3,260.63,89.76c-92.6,17.87-161.54,71.29-204,159.57-42.53,88.73-42,177.5-.2,266.29,3,6.24,5.41,12.83,9,18.66,66.8,108.38,163,155.86,285.47,143.72,57.35-5.69,109.77-27,151.54-70.78C579.19,532.79,595.36,438.92,583.71,335.92Z" transform="translate(-24.88 -84.17)"/></svg>