<svg id="Capa_1" data-name="Capa 1" xmlns="http://www.w3.org/2000/svg" viewBox="0 0 568.4 571.78"><defs><style>.cls-1{fill:#e4e4e1;}</style></defs><title>instagram</title><path class="cls-1" d="M431.1,681.89h-250c-5.64-1.25-11.27-2.52-16.91-3.73-83.49-17.92-141.34-88.56-142-174.75C21.54,432,21.91,360.5,22,289.05c.12-97.28,77.67-177,174.61-178.27q109.74-1.4,219.5,0c75.18.9,140.74,50,164.34,121.94,4.3,13.1,6.55,26.87,9.75,40.33V521.92c-.72,1.9-1.8,3.74-2.11,5.71C577.32,595.81,539.87,643,476.68,669.19,462.21,675.18,446.33,677.75,431.1,681.89Zm106-284.36H537c0-37.64.77-75.3-.17-112.92C535.24,220,482,165.29,418.34,164.3q-112.27-1.74-224.61,0C129,165.35,75.29,221.88,75.08,287q-.33,107.22,0,214.43c.23,72.11,54.51,126.77,126.16,127q104.73.36,209.48,0c71.54-.26,126-55.11,126.39-126.91C537.29,466.9,537.14,432.21,537.14,397.53Z" transform="translate(-21.8 -110.11)"/><path class="cls-1" d="M307,253.56c78.62.81,141.25,64.77,141,144-.25,78.2-65.35,142.3-143.55,141.35-79-1-141.31-65.75-140.21-145.87C165.25,315.91,229.89,252.78,307,253.56ZM216.8,395.5c.21,49.89,41,90.95,89.76,90.45,48-.5,89.05-41.65,88.77-89C395,347.11,354.19,306,305.45,306.5,257.3,307,216.61,347.85,216.8,395.5Z" transform="translate(-21.8 -110.11)"/><path class="cls-1" d="M458.15,261.07c-10.6-.31-17.88-8-17.69-18.73.19-10.94,8.67-18.78,19.61-18.12,10.28.61,17.48,8.82,17,19.39S468.77,261.39,458.15,261.07Z" transform="translate(-21.8 -110.11)"/></svg>