<svg id="Capa_1" data-name="Capa 1" xmlns="http://www.w3.org/2000/svg" viewBox="0 0 413.64 500.54"><defs><style>.cls-1{fill:#fff;}</style></defs><title>telefono</title><path class="cls-1" d="M263.74,252c3-8.33-27.63-91.27-50.87-130.38-14.62-9.51-41.2,0-68.82,11.1,0,0-74.81,38.83-53.86,133.15,6,27.74,3,52.7,80.79,174.76S332.56,620.88,395.4,618.11c80.79,0,104.72-52.7,104.72-61S410.36,454.45,395.4,451.67s-50.41,19-74.81,41.61c0,0-59.84-66.57-80.79-97.09s-50.87-99.86-50.87-99.86C222,281.09,260.75,260.27,263.74,252Z" transform="translate(-86.49 -117.66)"/></svg>