<svg id="Capa_1" data-name="Capa 1" xmlns="http://www.w3.org/2000/svg" viewBox="0 0 389.53 588.3"><defs><style>.cls-1{fill:#fff;}</style></defs><title>ubicacion</title><path class="cls-1" d="M300.75,638.22,280.25,673s-137.68-228.94-167-295.6c-29.29-78.25,5.86-139.1,5.86-139.1s-8.79,55.06,14.64,110.12C215.8,490.42,300.75,638.22,300.75,638.22Z" transform="translate(-101.62 -84.7)"/><path class="cls-1" d="M491.16,267.28c0-100.84-82.63-182.58-184.55-182.58S122.07,166.44,122.07,267.28a180.12,180.12,0,0,0,20.73,84h-.23c-.57,3.33,164,275.31,164,275.31L463.3,363.7c1.64-2.6,3.23-5.25,4.74-7.94l.47-.79h0A180.19,180.19,0,0,0,491.16,267.28ZM306.61,383.2c-63.09,0-114.24-50.6-114.24-113s51.15-113,114.24-113,114.24,50.6,114.24,113S369.71,383.2,306.61,383.2Z" transform="translate(-101.62 -84.7)"/><path class="cls-1" d="M356.41,180.34C262.67,134,215.8,223.81,215.8,223.81s55.66-43.47,123-5.8,55.66,107.23,55.66,107.23S453.08,238.3,356.41,180.34Z" transform="translate(-101.62 -84.7)"/></svg>