<svg id="Capa_1" data-name="Capa 1" xmlns="http://www.w3.org/2000/svg" viewBox="0 0 945.86 574.11"><defs><style>.cls-1{fill:#e4e4e1;}</style></defs><title>whatsapp</title><path class="cls-1" d="M8.1,655.17C12.59,639.53,17,624.27,21.33,609q14.16-49.59,28.23-99.21a5.27,5.27,0,0,0-.49-3.75,274.33,274.33,0,0,1-35.39-99A270.25,270.25,0,0,1,12,338.7q8.29-81.57,60.38-146.53,42.8-53.35,106-82.76a299.86,299.86,0,0,1,80.91-24.57,308.21,308.21,0,0,1,78.88-2.24c45,4.52,86.83,18,125.23,41q67.17,40.23,105.11,107A269.36,269.36,0,0,1,600,319.71a272.37,272.37,0,0,1,2.47,73.3q-8.73,84.38-63.93,150.58c-28.66,34.4-63.89,60.93-105.36,79.8a298.43,298.43,0,0,1-73.38,22.5,306.8,306.8,0,0,1-68.17,4,301.78,301.78,0,0,1-93.71-19.7c-10.39-4-20.37-9-30.59-13.48a7.08,7.08,0,0,0-4.15-.47q-76.51,19.17-153,38.49C9.65,654.88,9.09,655,8.1,655.17Zm71.22-67.65c.92-.16,1.39-.22,1.84-.33Q125.7,576,170.23,564.81a5.76,5.76,0,0,1,4.62.62c7.08,3.93,14.08,8,21.38,11.52a257.3,257.3,0,0,0,153.5,21.81A248.67,248.67,0,0,0,452.08,557a238.52,238.52,0,0,0,73.38-81.32A228.72,228.72,0,0,0,547.66,313c-9.95-41.64-30.16-78.15-60.76-109.19q-60.27-61.14-147.31-72.63a252,252,0,0,0-72.9,1.24,249.14,249.14,0,0,0-91.18,33.45q-53.16,32.43-83.94,85.22a227,227,0,0,0-29,144.39,231.12,231.12,0,0,0,14.78,56.06c6.65,16.56,15.48,32,25.45,46.91a5,5,0,0,1,.78,3.68c-6.09,21.62-12.31,43.21-18.48,64.81C83.22,573.66,81.34,580.38,79.32,587.52Z" transform="translate(-8.1 -81.06)"/><path class="cls-1" d="M210.81,234.47c2.4,0,4.81.12,7.2,0a11.91,11.91,0,0,1,11.85,6.32,130.44,130.44,0,0,1,6,12.48q10.46,23.85,20.78,47.78a13.1,13.1,0,0,1-.35,11.47c-4.65,9.71-12.26,17.23-19.62,24.95-4.5,4.71-5.08,8-1.74,13.5,20.68,33.67,48.35,60.32,85.24,77.61,5.85,2.75,11.84,5.24,17.83,7.71,5.82,2.4,9.66,1.71,13.73-3,7.78-8.94,15.47-18,22.91-27.19,4.8-5.94,8-7.41,15.31-4.56,8.63,3.35,17.08,7.16,25.5,11,11.7,5.36,23.23,11.06,35,16.34,5.35,2.41,7.6,6,7.37,11.63a83,83,0,0,1-6,28.05c-2.18,5.35-6.22,9.53-10.67,13.27a89.5,89.5,0,0,1-33.65,18.09c-8.89,2.49-18.1,2.6-27.3,2.42-13.69-.28-26.39-4.57-39.16-8.7-30.89-10-59.34-24.23-84.56-44.23a340.71,340.71,0,0,1-56.34-56.12c-9-11.43-17.62-23.2-25.53-35.35-8.5-13-14.53-27.27-16.92-42.57-4.24-27.11,3.16-50.84,23.21-70.74,4.77-4.73,9.85-8.84,16.76-9.88,4.3-.65,8.73-.49,13.1-.7Z" transform="translate(-8.1 -81.06)"/><path class="cls-1" d="M953.81,270.46c0-.51-.32-.46-.62-.46h-10.8c-.17,0-.4-.12-.52.16v.17c0,1.43,0,2.87,0,4.3,0,.81.21,1,.87,1,2-.05,4,0,6,0a7,7,0,0,1-2.51,4.49,7.13,7.13,0,0,1-6.44,1c-2.51-.85-4.1-2.83-5.05-5.54a10.33,10.33,0,0,1,0-5.65l.18-.46c2.17-5.84,8.23-6.87,11.52-3.55.31.31.45.16.66-.08.92-1.06,1.83-2.15,2.79-3.16.48-.49.38-.74-.05-1.14a11.1,11.1,0,0,0-10.26-2.94c-4.1.87-7.15,3.45-9,7.73a15.55,15.55,0,0,0,0,12.89,9.1,9.1,0,0,0,.4.9c3,5.25,7.21,7.55,12.63,7a10,10,0,0,0,6.7-3.43C953.61,280,954.33,275.45,953.81,270.46Z" transform="translate(-8.1 -81.06)"/></svg>